<svg xmlns="http://www.w3.org/2000/svg" viewBox="0 0 120 120" role="img" aria-label="AAIP QR">
  <rect width="120" height="120" fill="#2f97f3"/>
  <text x="60" y="18" fill="#fff" font-family="Arial, sans-serif" font-size="12" font-weight="700" text-anchor="middle">AAIP</text>
  <rect x="18" y="28" width="84" height="84" fill="#fff"/>
  <g fill="#0f1c2d">
    <rect x="24" y="34" width="18" height="18"/><rect x="28" y="38" width="10" height="10" fill="#fff"/><rect x="31" y="41" width="4" height="4"/>
    <rect x="78" y="34" width="18" height="18"/><rect x="82" y="38" width="10" height="10" fill="#fff"/><rect x="85" y="41" width="4" height="4"/>
    <rect x="24" y="88" width="18" height="18"/><rect x="28" y="92" width="10" height="10" fill="#fff"/><rect x="31" y="95" width="4" height="4"/>
    <rect x="48" y="34" width="6" height="6"/><rect x="60" y="34" width="6" height="6"/><rect x="66" y="40" width="6" height="6"/>
    <rect x="48" y="46" width="12" height="6"/><rect x="66" y="52" width="6" height="6"/><rect x="84" y="58" width="6" height="6"/>
    <rect x="48" y="64" width="6" height="6"/><rect x="60" y="58" width="12" height="6"/><rect x="72" y="64" width="6" height="12"/>
    <rect x="30" y="64" width="12" height="6"/><rect x="42" y="70" width="6" height="12"/><rect x="54" y="76" width="18" height="6"/>
    <rect x="78" y="82" width="6" height="6"/><rect x="90" y="76" width="6" height="18"/><rect x="84" y="100" width="12" height="6"/>
    <rect x="48" y="94" width="6" height="12"/><rect x="60" y="88" width="12" height="6"/><rect x="66" y="100" width="6" height="6"/>
    <rect x="78" y="58" width="6" height="6"/><rect x="54" y="70" width="6" height="6"/><rect x="36" y="76" width="6" height="6"/>
  </g>
</svg>
