<?xml version="1.0" encoding="utf-8"?>
<!-- Generator: Adobe Illustrator 23.0.5, SVG Export Plug-In . SVG Version: 6.00 Build 0)  -->
<svg version="1.1" id="Capa_1" xmlns="http://www.w3.org/2000/svg" xmlns:xlink="http://www.w3.org/1999/xlink" x="0px" y="0px"
	 viewBox="0 150 800 400" style="enable-background:new 0 150 800 400;" xml:space="preserve">
<style type="text/css">
	.st0{fill:#2F97F3;}
	.st1{fill:#FFFFFF;}
	.st2{fill:#1D1D1B;}
	.st3{fill:#B0DAE8;}
	.st4{fill:#E2E2E2;}
	.st5{fill:#0F1C2D;}
</style>
<g>
	<g>
		<path class="st1" d="M96.84,286.24h50.46l70.58,171.36L240,410.79c0,0,21.7-42.51,47.91-50.16l16.04,36.36
			c-16.35,8.84-26.42,34.78-26.42,34.78l-37.07,79.17h-45.14L96.84,286.24z"/>
		<path class="st1" d="M699.42,431.96c-2.49-5.85-6.23-10.93-11.21-15.24c-4.98-4.31-11.29-7.67-18.9-10.06
			c-7.62-2.39-16.51-3.59-26.67-3.59c-5.46,0-10.81,0.24-16.03,0.72c-5.22,0.48-10.28,0.98-15.16,1.51
			c-4.89,0.53-9.59,1.03-14.09,1.51c-4.5,0.48-8.77,0.72-12.79,0.72c-4.41,0-8.12-0.31-11.14-0.93c-3.02-0.63-5.46-1.53-7.33-2.73
			c-1.87-1.2-3.21-2.61-4.02-4.24c-0.82-1.63-1.22-5.62-1.22-7.63c0-2.78,0.79-5.44,2.37-7.98c1.58-2.54,4.1-4.79,7.55-6.76
			c3.45-1.96,7.93-3.54,13.44-4.74c5.51-1.2,12.24-1.8,20.2-1.8c11.4,0,22.5,1.17,33.28,3.52c10.78,2.35,21.59,5.53,32.42,9.56
			l13.37-33.07c-5.08-2.01-10.93-3.9-17.54-5.68c-6.61-1.77-13.51-3.33-20.7-4.67c-7.19-1.34-14.5-2.42-21.92-3.24
			c-7.43-0.81-14.55-1.22-21.35-1.22c-13.03,0-24.85,1.49-35.44,4.46c-10.59,2.97-19.62,7.11-27.1,12.43
			c-7.48,5.32-13.23,11.62-17.25,18.91c-4.02,7.28-6.04,17.4-6.04,26.03c0,6.81,1.15,13.16,3.45,19.05c2.3,5.89,5.99,11,11.07,15.31
			c5.08,4.31,11.67,7.71,19.77,10.21c8.1,2.49,17.9,3.74,29.4,3.74c5.27,0,10.47-0.24,15.6-0.72c5.13-0.48,10.06-0.98,14.81-1.51
			c4.74-0.53,9.27-1.03,13.59-1.51c4.31-0.48,8.34-0.72,12.08-0.72c8.05,0,13.82,1.44,17.32,4.32c3.5,2.87,5.25,6.32,5.25,10.35
			c0,2.78-0.82,5.51-2.44,8.19c-1.63,2.69-4.41,5.08-8.34,7.19c-3.93,2.11-9.15,3.83-15.67,5.17c-6.52,1.34-14.66,2.02-24.44,2.02
			c-17.1,0-34.3-2.16-50.64-7.3c-16.46-5.18-30.45-15.22-47.4-18.92c-10.8-2.36-21.78-2.91-32.79-2.06
			c-9.47,0.73-19.78,2.39-28.22,6.75c-10.16,5.25-20.36,10.41-31.2,14.13c-16.3,5.58-35.98,7.99-52.88,3.89
			c-4.94-1.2-8.99-2.78-12.15-4.74c-3.16-1.96-5.46-4.22-6.9-6.76c-1.43-2.54-2.15-5.2-2.15-7.98c0-2.59,0.67-5.08,2.01-7.47
			c1.34-2.4,3.64-4.48,6.9-6.25c3.26-1.77,7.52-3.18,12.79-4.24c5.27-1.05,11.88-1.58,19.84-1.58c3.83,0,8.31,0.14,13.44,0.43
			c5.13,0.29,10.59,0.79,16.39,1.51c5.8,0.72,11.88,1.7,18.26,2.95c6.33,1.24,12.73,2.77,19.21,4.57c12.23-4,27.02-5.83,42.68-4.37
			v-4.51c0-33.45-7.71-61.38-23.15-77.57c-15.43-16.2-39.01-24.3-70.73-24.3c-7.19,0-14.62,0.38-22.28,1.15
			c-7.67,0.77-15.33,1.85-23,3.24c-7.67,1.39-15.17,3.04-22.5,4.96c-7.33,1.92-14.21,4.03-20.63,6.33l12.94,34.93
			c5.17-2.39,10.76-4.46,16.75-6.18c5.99-1.73,12.05-3.16,18.19-4.31c6.13-1.15,12.08-2.01,17.83-2.59
			c5.75-0.57,11.02-0.86,15.81-0.86c8.82,0,16.7,0.91,23.65,2.73c6.95,1.82,12.89,4.39,17.83,7.69c4.94,3.31,8.79,7.24,11.57,11.79
			c2.78,4.55,4.41,12.62,4.89,17.99c-12.27-3.17-24.17-5.51-35.72-7.05c-11.55-1.53-22.55-2.3-32.99-2.3
			c-14.09,0-26.43,1.32-37.02,3.95c-10.59,2.64-19.43,6.38-26.52,11.21c-7.09,4.84-12.41,10.62-15.96,17.32
			c-3.55,6.71-5.32,14.14-5.32,22.28c0,8.05,1.7,15.5,5.11,22.35c3.4,6.85,8.45,12.82,15.16,17.9c6.71,5.08,15.07,9.06,25.09,11.93
			c10.01,2.87,21.63,4.31,34.86,4.31c7.86,0,15.31-0.5,22.35-1.51c14.67-2.1,27.96-6.11,41.08-12.95
			c10.95-5.71,21.98-12.42,34.36-14.36c13.41-2.1,26.88,1.53,39.26,6.48c18.09,7.23,35.54,16.9,55.06,19.59
			c2.27,0.31,4.81,0.96,7.08,0.96c9.1,1.2,18.55,1.8,28.32,1.8c15.91,0,29.93-1.58,42.05-4.74c12.12-3.17,22.26-7.55,30.4-13.15
			c8.15-5.61,14.28-12.24,18.4-19.91c4.12-7.67,6.18-15.96,6.18-24.87C703.16,444.18,701.91,437.81,699.42,431.96z"/>
	</g>
</g>
</svg>
